<?xml version="1.0" encoding="UTF-8"?><svg xmlns="http://www.w3.org/2000/svg" version="1.1" width="1147" height="112" viewBox="384 481 1147 112">
<path d="M0 0 C6.579375 -0.20625 13.15875 -0.4125 19.9375 -0.625 C21.99605225 -0.71604004 24.05460449 -0.80708008 26.17553711 -0.90087891 C39.1247613 -1.2349659 39.1247613 -1.2349659 44.18408203 2.09692383 C46.46884399 4.62261837 48.22679822 7.09992862 50 10 C51.31461019 11.66082666 52.64571811 13.30886078 54 14.9375 C55.33343448 16.62492008 56.66676355 18.31242346 58 20 C59.55712301 21.94182399 61.11968742 23.87929639 62.6875 25.8125 C63.39261719 26.68519531 64.09773438 27.55789063 64.82421875 28.45703125 C67.09514821 31.11120554 69.50037435 33.56166115 72 36 C72.54527344 35.33355469 73.09054687 34.66710937 73.65234375 33.98046875 C77.6015625 29.15364583 81.55078125 24.32682292 85.5 19.5 C86.23347656 18.6028125 86.96695313 17.705625 87.72265625 16.78125 C89.31100114 14.84145315 90.90238673 12.90414382 92.49609375 10.96875 C93.30175781 9.9890625 94.10742188 9.009375 94.9375 8 C96.03384766 6.6696875 96.03384766 6.6696875 97.15234375 5.3125 C99.10145442 2.94099979 99.10145442 2.94099979 101 0 C104.04888841 -0.26632432 106.89792157 -0.34777173 109.9453125 -0.29296875 C111.12178345 -0.28843689 111.12178345 -0.28843689 112.32202148 -0.28381348 C115.2564812 -0.26809771 118.19075358 -0.22621369 121.125 -0.1875 C127.68375 -0.125625 134.2425 -0.06375 141 0 C141 20.46 141 40.92 141 62 C131.43 62 121.86 62 112 62 C111.67 49.13 111.34 36.26 111 23 C101.55039296 34.01597679 101.55039296 34.01597679 92.30859375 45.18359375 C89.57027293 48.52425248 86.79081113 51.82816515 84 55.125 C83.51845459 55.69420166 83.03690918 56.26340332 82.54077148 56.84985352 C77.96497924 62.24454994 77.96497924 62.24454994 72.78149414 62.75073242 C63.92947489 63.2608284 63.92947489 63.2608284 60.31201172 60.89697266 C57.11327597 57.89978116 54.6442404 54.35291094 52.1953125 50.73535156 C50.46341318 48.22098466 48.5195133 45.90392663 46.5625 43.5625 C45.85222656 42.68851563 45.14195312 41.81453125 44.41015625 40.9140625 C40.96873781 36.75312545 37.44010343 32.66830874 33.89672852 28.59399414 C30.10617526 24.21235051 30.10617526 24.21235051 29 22 C28.67 35.2 28.34 48.4 28 62 C18.76 62 9.52 62 0 62 C0 41.54 0 21.08 0 0 Z " fill="#FFFFFF" transform="translate(397,509)"/>
<path d="M0 0 C0.70348572 -0.00067474 1.40697144 -0.00134949 2.1317749 -0.00204468 C20.86761917 0.02637274 43.88527627 0.25287079 58.84375 13.2578125 C64.16736822 19.01002711 65.98332168 24.58299295 66.25 32.375 C65.88161195 40.88476403 63.75456166 45.48812732 57.75 51.4375 C44.62916928 62.33590988 25.09149949 63.70376901 8.6875 64.25 C7.45902344 64.29125 6.23054688 64.3325 4.96484375 64.375 C-15.52756493 64.70854887 -42.34730919 64.65359208 -58.25 49.875 C-64.25272952 43.23518834 -64.88560215 37.48991326 -64.65234375 28.69140625 C-63.9797685 21.88061549 -61.70940181 17.26427739 -56.8125 12.5 C-41.33851879 0.18920832 -18.86086978 0.01631898 0 0 Z M-31.3125 23.25 C-33.8637027 26.75790371 -34.2933503 28.84785628 -34.5 33.1875 C-33.6877964 37.69782215 -31.21116104 40.01129087 -27.6953125 42.77734375 C-14.14675977 51.15079355 6.53625224 49.64613707 21.4609375 46.2265625 C27.272751 44.46753904 31.14790279 42.34945074 34.75 37.4375 C35.95365195 33.34508338 36.24517486 30.27265519 34.6875 26.25 C29.60530538 19.55894496 21.58870726 17.63999439 13.6875 16.25 C9.5025343 16.00602179 5.31639253 16.01889078 1.125 16 C0.00802734 15.979375 -1.10894531 15.95875 -2.25976562 15.9375 C-12.40988575 15.89042698 -22.96143742 17.03112361 -31.3125 23.25 Z " fill="#FFFFFF" transform="translate(1457.3125,507.75)"/>
<path d="M0 0 C18.32526933 -0.08021762 18.32526933 -0.08021762 26.234375 -0.09765625 C31.59704629 -0.10953704 36.95964825 -0.12347579 42.32226562 -0.15087891 C46.65356192 -0.17286933 50.9847837 -0.18462283 55.31613159 -0.18975449 C56.95524262 -0.19340387 58.59435033 -0.20052745 60.23342896 -0.21146011 C79.95366636 -0.33756786 102.85167092 0.12163379 117.8125 14.75 C121.80703101 20.68473178 123.77097148 26.80426616 123 34 C121.61001436 40.48659966 119.23450515 45.79300883 114 50 C100.76628399 58.17775785 86.3099717 61.19186849 70.83984375 61.11352539 C70.06814346 61.11367142 69.29644318 61.11381744 68.50135803 61.1139679 C65.98004226 61.11327768 63.45880268 61.10552751 60.9375 61.09765625 C59.17773479 61.0957889 57.41796905 61.09436649 55.65820312 61.09336853 C51.04854879 61.08956832 46.43892645 61.0797596 41.82928467 61.06866455 C36.28666342 61.05658808 30.74403142 61.05203629 25.20140076 61.04621124 C16.80091165 61.03654631 8.40049262 61.01737234 0 61 C0 40.87 0 20.74 0 0 Z M28 15 C28 25.23 28 35.46 28 46 C33.33469662 46.04625459 38.66867958 46.08597497 44.00341797 46.10986328 C45.81301245 46.11983616 47.62259118 46.13341932 49.43212891 46.15087891 C70.13567626 46.62868597 70.13567626 46.62868597 89 39 C91.63368407 36.05647075 91.93954856 34.47497564 92.4375 30.5625 C91.8958097 26.15159328 90.99851742 24.2910557 88 21 C76.19306017 13.08545792 59.20453915 14.73503198 45.625 14.875 C43.90625528 14.88506063 42.18750478 14.89418097 40.46875 14.90234375 C36.31223534 14.9223655 32.15654547 14.96155302 28 15 Z " fill="#FFFFFF" transform="translate(1213,509)"/>
<path d="M0 0 C0.79652985 -0.00100708 1.59305969 -0.00201416 2.41372681 -0.00305176 C11.95919709 0.00510236 21.4061094 0.15553637 30.875 1.5 C32.05412964 1.66387207 32.05412964 1.66387207 33.25708008 1.83105469 C41.19989102 3.16023486 48.01302328 6.40757808 54.375 11.296875 C56.46467603 14.40651196 56.38279293 17.54780915 56.6875 21.25 C52.48834693 21.34907258 48.28981748 21.42156173 44.08984375 21.46972656 C42.66198879 21.48980982 41.23421575 21.51708252 39.80664062 21.55175781 C37.75109632 21.60042669 35.69664145 21.62299967 33.640625 21.640625 C32.40473633 21.66157227 31.16884766 21.68251953 29.89550781 21.70410156 C26.0609298 21.16130741 25.18481337 20.08667542 22.6875 17.25 C15.66710474 14.15749705 7.10280255 14.9876826 -0.375 15.0625 C-2.21674805 15.0634668 -2.21674805 15.0634668 -4.09570312 15.06445312 C-10.25615839 15.09430994 -16.22337141 15.29976146 -22.3125 16.25 C-21.8175 18.23 -21.8175 18.23 -21.3125 20.25 C-14.19711433 22.53577156 -7.1561678 22.59533128 0.25387573 22.71331787 C45.50677083 23.47350934 45.50677083 23.47350934 57.5 33.8125 C60.61157085 37.5791384 60.09010535 42.65556249 59.6875 47.25 C58.1075356 52.62187895 54.92462092 55.11125826 50.296875 57.93359375 C27.96428534 69.20018464 -13.63688119 67.58322785 -37.09375 60.0859375 C-43.72031391 57.58930955 -49.88545033 54.84321666 -53.3125 48.25 C-53.6425 45.61 -53.9725 42.97 -54.3125 40.25 C-44.0825 40.25 -33.8525 40.25 -23.3125 40.25 C-22.6525 41.9 -21.9925 43.55 -21.3125 45.25 C-13.81545176 49.44834702 -5.53582853 49.44610355 2.875 49.4375 C3.7 49.43669434 4.525 49.43588867 5.375 49.43505859 C17.60438546 49.49956713 17.60438546 49.49956713 28.6875 45.25 C28.6875 43.93 28.6875 42.61 28.6875 41.25 C18.29289864 39.47912893 8.2034303 38.90264303 -2.3125 38.75 C-36.20951364 38.25797099 -36.20951364 38.25797099 -48.4375 30.1875 C-51.77886574 26.7347554 -52.60564981 24.58354675 -52.625 19.875 C-52.64175781 18.93914063 -52.65851562 18.00328125 -52.67578125 17.0390625 C-52.23673366 13.66831006 -51.4000787 11.93084358 -49.3125 9.25 C-34.7594025 -0.56281917 -16.85680141 0.01476286 0 0 Z " fill="#FFFFFF" transform="translate(894.3125,507.75)"/>
<path d="M0 0 C1.61952314 0.00560903 3.23905145 0.00987293 4.85858154 0.01286316 C9.08032783 0.02420922 13.30175467 0.05358555 17.52337646 0.0869751 C21.84757163 0.11789939 26.17181941 0.13141582 30.49609375 0.14648438 C38.95066592 0.1784673 47.4049805 0.22953634 55.859375 0.29296875 C55.27494629 0.95719597 55.27494629 0.95719597 54.67871094 1.63484192 C52.27463889 4.39763155 50.00856848 7.06488843 48 10.13549805 C44.94331486 14.24883946 42.32173554 16.79708317 37.27929688 17.81256104 C29.49194136 18.58569441 21.67029562 18.31172054 13.859375 18.10546875 C10.32005635 18.03857524 6.78207083 17.98663927 3.2421875 17.96354675 C1.04909587 17.94666053 -1.144009 17.90390661 -3.3359375 17.83052063 C-10.55467841 17.74004838 -16.19020444 19.03846569 -22.140625 23.29296875 C-24.40527107 25.84771362 -25.09387282 26.84414785 -25.453125 30.29296875 C-25.14237065 33.27621051 -24.68024673 34.77082525 -23.140625 37.29296875 C-12.34481259 44.21858426 1.25354153 43.62899529 13.671875 43.91796875 C15.0579635 43.9562863 16.44403172 43.99534515 17.83007812 44.03515625 C21.17305247 44.1283402 24.5160364 44.21415118 27.859375 44.29296875 C27.859375 41.98296875 27.859375 39.67296875 27.859375 37.29296875 C13.669375 37.29296875 -0.520625 37.29296875 -15.140625 37.29296875 C-15.140625 36.63296875 -15.140625 35.97296875 -15.140625 35.29296875 C-13.6015625 33.77734375 -13.6015625 33.77734375 -11.515625 32.04296875 C-8.8936383 29.85295687 -6.87378053 27.94305319 -4.78320312 25.20166016 C-0.98490732 21.41639168 2.76589601 21.61106563 7.92477417 21.6131897 C9.68290939 21.65964127 9.68290939 21.65964127 11.4765625 21.70703125 C12.68885529 21.71552094 13.90114807 21.72401062 15.150177 21.73275757 C19.01248992 21.76627578 22.8726958 21.84156171 26.734375 21.91796875 C29.35674063 21.94806996 31.97913907 21.97544547 34.6015625 22 C41.02229301 22.0609563 47.43848308 22.17838575 53.859375 22.29296875 C53.859375 34.83296875 53.859375 47.37296875 53.859375 60.29296875 C36.99139241 60.45340399 36.99139241 60.45340399 29.70898438 60.48828125 C24.77187547 60.51203979 19.83506787 60.5399067 14.89819336 60.59472656 C10.91052042 60.63872082 6.92317133 60.66221655 2.93527412 60.67247772 C1.42647782 60.6797744 -0.08230413 60.69401761 -1.59095955 60.71588898 C-16.73932201 60.92643051 -32.92565422 58.84325311 -44.5234375 48.08203125 C-50.96885649 41.12837134 -52.63753114 35.98773266 -52.4453125 26.515625 C-51.83012395 20.00882299 -49.23291926 16.06910103 -44.578125 11.60546875 C-31.67025056 1.13124162 -15.93685309 -0.16408206 0 0 Z " fill="#FFFFFF" transform="translate(606.140625,509.70703125)"/>
<path d="M0 0 C9.57 0 19.14 0 29 0 C29.02578125 2.0728125 29.0515625 4.145625 29.078125 6.28125 C29.11988367 8.31350524 29.16178393 10.34576006 29.20751953 12.37792969 C29.23555071 13.77819961 29.25685316 15.17862251 29.27099609 16.57910156 C29.33519964 27.91050888 29.33519964 27.91050888 34 38 C36.26967129 39.91947464 36.26967129 39.91947464 38.875 40.9375 C39.69742187 41.31777344 40.51984375 41.69804688 41.3671875 42.08984375 C52.60717656 45.97547795 66.93177548 45.12834098 78 41 C82.63536951 38.35121742 84.37266309 34.95715357 86 30 C86.49414286 26.43521517 86.49414286 26.43521517 86.51171875 22.75390625 C86.53864555 21.76994118 86.53864555 21.76994118 86.56611633 20.76609802 C86.61972153 18.69829488 86.65395093 16.63071562 86.6875 14.5625 C86.72071743 13.14905769 86.75521111 11.73564477 86.79101562 10.32226562 C86.87779185 6.88148721 86.93827536 3.44168083 87 0 C96.57 0 106.14 0 116 0 C116.04125 4.764375 116.0825 9.52875 116.125 14.4375 C116.14320801 15.9217749 116.16141602 17.4060498 116.18017578 18.93530273 C116.22731646 30.21941377 115.53721717 39.14251641 108 48 C93.09804187 62.11764454 70.6939835 62.33892199 51.3671875 61.9375 C36.22491203 61.39900262 20.17802834 59.09662923 8.4140625 48.71875 C1.13147089 40.83146667 -0.14321927 33.37008911 -0.09765625 22.75390625 C-0.0962413 22.09792953 -0.09482635 21.44195282 -0.09336853 20.76609802 C-0.08783031 18.69818298 -0.07529002 16.63038158 -0.0625 14.5625 C-0.05747699 13.14909012 -0.0529155 11.73567852 -0.04882812 10.32226562 C-0.03873771 6.88143282 -0.01915125 3.44084162 0 0 Z " fill="#FFFFFF" transform="translate(1080,509)"/>
<path d="M0 0 C1.59710284 0.00560929 3.19421091 0.00987307 4.7913208 0.01286316 C8.95388551 0.02420724 13.11612605 0.05358173 17.27856445 0.0869751 C21.54243589 0.11790378 25.80636074 0.13141674 30.0703125 0.14648438 C38.40639721 0.17846377 46.74222055 0.22953026 55.078125 0.29296875 C54.68886841 0.7357869 54.29961182 1.17860504 53.89855957 1.63484192 C51.49496444 4.39857347 49.22299154 7.07357734 47.20117188 10.13549805 C44.15488192 14.20541954 41.54306826 16.78854418 36.5390625 17.81256104 C28.9047929 18.58436061 21.23634507 18.31188546 13.578125 18.10546875 C10.11013039 18.03856288 6.64349798 17.98663324 3.17492676 17.96354675 C1.0263421 17.94666762 -1.12225706 17.90393866 -3.26965332 17.83052063 C-10.42988821 17.73896322 -16.0174657 19.08707561 -21.921875 23.29296875 C-24.07373934 25.74520469 -24.85680266 26.91880282 -25.421875 30.16796875 C-24.76391687 34.28020704 -23.0725848 36.70187407 -19.921875 39.29296875 C-10.75155221 44.53896272 1.34494078 43.46704809 11.5234375 43.609375 C13.39997513 43.64054665 13.39997513 43.64054665 15.31442261 43.67234802 C18.6055132 43.72627903 21.89663178 43.77663784 25.18780518 43.82519531 C28.56014857 43.87585349 31.93241298 43.93130578 35.3046875 43.98632812 C41.89577 44.09291083 48.48691245 44.19477644 55.078125 44.29296875 C53.72452993 45.92422435 52.36148973 47.54821107 50.9624939 49.14070129 C49.64874097 50.64122897 48.369733 52.17258611 47.11880493 53.72587585 C43.14439515 58.28445257 40.30100226 60.81674585 34.15380859 61.37817383 C31.92809709 61.4035665 29.70142021 61.3791683 27.4765625 61.3125 C25.68455917 61.30762825 25.68455917 61.30762825 23.85635376 61.30265808 C21.33646766 61.28693101 18.81663402 61.24951464 16.29736328 61.19165039 C12.48477938 61.10617839 8.67673281 61.08915967 4.86328125 61.08398438 C-12.35910204 60.95369187 -30.89230578 60.52696248 -44.3046875 48.08203125 C-50.75010649 41.12837134 -52.41878114 35.98773266 -52.2265625 26.515625 C-51.61137395 20.00882299 -49.01416926 16.06910103 -44.359375 11.60546875 C-31.52063064 1.18733793 -15.85993149 -0.16565277 0 0 Z " fill="#FFFFFF" transform="translate(727.921875,509.70703125)"/>
<path d="M0 0 C34.65 0 69.3 0 105 0 C105 4.95 105 9.9 105 15 C92.46 15 79.92 15 67 15 C67 30.51 67 46.02 67 62 C57.43 62 47.86 62 38 62 C38 46.49 38 30.98 38 15 C25.46 15 12.92 15 0 15 C0 10.05 0 5.1 0 0 Z " fill="#FFFFFF" transform="translate(963,509)"/>
<path d="M0 0 C9.57 0 19.14 0 29 0 C29 20.13 29 40.26 29 61 C19.43 61 9.86 61 0 61 C0 40.87 0 20.74 0 0 Z " fill="#FFFFFF" transform="translate(1350,509)"/>
</svg>